<svg version="1.1" id="Layer_1" xmlns="http://www.w3.org/2000/svg" xmlns:xlink="http://www.w3.org/1999/xlink" x="0px" y="0px"
	 width="100%" viewBox="0 0 674 250" enable-background="new 0 0 674 250" xml:space="preserve">
<path fill="#FFFFFF" opacity="1.000000" stroke="none" 
	d="
M424.000000,251.000000 
	C282.666656,251.000000 141.833328,251.000000 1.000000,251.000000 
	C1.000000,167.666672 1.000000,84.333336 1.000000,1.000000 
	C225.666672,1.000000 450.333344,1.000000 675.000000,1.000000 
	C675.000000,84.333336 675.000000,167.666672 675.000000,251.000000 
	C591.500000,251.000000 508.000000,251.000000 424.000000,251.000000 
M264.212494,215.825516 
	C255.947739,218.312149 248.342285,217.173859 241.831543,211.317398 
	C238.496826,208.317810 235.072418,205.249832 232.443741,201.659790 
	C209.610199,170.475510 186.518707,139.427582 171.450562,103.079979 
	C161.776093,113.640961 151.738708,124.598106 142.041580,135.183823 
	C145.701813,140.358200 149.279800,144.911163 152.317612,149.799805 
	C164.345673,169.155975 175.822571,188.865936 188.250488,207.958694 
	C197.725632,222.515182 212.001236,229.332962 229.294647,227.637253 
	C238.250656,226.759033 247.069122,223.920288 255.779892,221.383987 
	C259.085724,220.421448 261.914764,217.821472 265.387207,215.930130 
	C265.353149,215.747894 265.319122,215.565659 265.285095,215.383423 
	C265.208405,215.605927 265.131714,215.828415 264.212494,215.825516 
M90.915466,135.500000 
	C90.912354,156.824554 90.885170,178.149155 90.915688,199.473663 
	C90.932487,211.213104 87.222061,220.698532 75.582573,225.578369 
	C75.297676,225.697815 75.217064,226.304520 75.098625,226.560028 
	C97.649940,226.560028 120.086815,226.560028 142.523697,226.560028 
	C129.382721,221.116592 126.271950,210.746719 126.558411,197.974258 
	C126.939354,180.989365 126.768654,163.989685 126.679878,146.997192 
	C126.527611,117.849106 126.568459,88.694801 125.929367,59.556236 
	C125.459785,38.146160 113.674675,25.682133 92.556190,22.875267 
	C89.161858,22.424126 85.734756,22.219542 83.080360,21.971712 
	C85.022858,25.887386 87.652679,29.164148 88.237160,32.772243 
	C89.614532,41.274891 90.590721,49.927849 90.705399,58.533649 
	C91.042770,83.852203 90.881851,109.177406 90.915466,135.500000 
M462.966827,145.500000 
	C462.966827,125.758064 462.966827,106.016129 462.966827,86.213348 
	C445.087189,91.286537 427.850311,96.177361 410.159088,101.197105 
	C411.035309,101.604195 411.553467,101.903923 412.109070,102.094360 
	C423.507812,106.001305 427.906158,111.353355 428.028534,123.291000 
	C428.305145,150.265747 428.275818,177.244629 428.203247,204.221375 
	C428.178589,213.378143 423.648376,219.990250 415.564301,224.210190 
	C414.503906,224.763702 413.480072,225.387238 411.230957,226.664627 
	C435.839813,226.664627 459.009979,226.664627 483.401184,226.664627 
	C481.691254,225.720093 481.154816,225.335999 480.558777,225.107437 
	C467.352875,220.043259 462.982239,213.690918 462.973785,199.460587 
	C462.963318,181.807053 462.968323,164.153534 462.966827,145.500000 
M305.986481,212.633850 
	C299.774017,206.206345 298.014221,198.082474 297.993591,189.642838 
	C297.914215,157.158432 298.105377,124.673378 298.194519,92.188568 
	C298.199860,90.241302 298.195221,88.293999 298.195221,86.347992 
	C280.600403,91.364212 263.579956,96.216690 246.141602,101.188309 
	C260.485260,106.473282 263.984894,111.209724 264.069611,126.164413 
	C264.194214,148.153992 263.759857,170.150406 264.156036,192.133224 
	C264.355682,203.211121 267.494049,213.491440 277.082947,220.606415 
	C291.948273,231.636490 322.914978,225.419418 332.933777,212.376099 
	C329.321320,213.430832 326.086517,214.509476 322.784241,215.309555 
	C317.124237,216.680847 311.558960,216.882690 305.986481,212.633850 
M388.024567,89.869781 
	C387.857239,88.649864 387.689911,87.429939 387.559235,86.477295 
	C370.498505,91.393883 353.824615,96.198990 335.838776,101.382179 
	C350.561615,104.667702 354.501984,114.262260 354.323029,126.641052 
	C354.286926,129.138260 354.263031,131.635803 354.254669,134.133255 
	C354.175598,157.779663 353.900055,181.427750 354.097412,205.071884 
	C354.224701,220.322845 363.605835,228.812378 378.788086,227.756348 
	C384.216949,227.378723 389.656158,226.308701 394.939514,224.961929 
	C398.771851,223.985016 402.355438,222.032181 406.049927,220.514511 
	C405.935150,220.092102 405.820374,219.669693 405.705597,219.247284 
	C404.968536,219.167038 404.233154,219.040634 403.494171,219.013596 
	C395.079895,218.705658 390.853821,215.708801 389.097778,207.500809 
	C387.889282,201.852295 387.259430,195.965561 387.276917,190.188049 
	C387.377167,157.054932 387.748322,123.922623 388.024567,89.869781 
M635.286072,94.127922 
	C625.026489,89.237045 614.247742,86.732773 602.761353,86.995872 
	C615.429565,91.973274 621.454712,102.653702 625.904419,114.251350 
	C634.309082,136.157028 636.124390,158.852280 632.341797,181.968140 
	C629.506470,199.295151 625.223145,215.950500 608.840759,226.571625 
	C609.914856,227.138107 610.659790,227.895676 611.269653,227.799240 
	C626.369690,225.411636 640.270264,220.240051 651.197327,209.102448 
	C664.248474,195.799927 670.488037,179.527954 671.245178,161.008255 
	C672.433533,131.941238 662.042236,109.055000 635.286072,94.127922 
M565.718323,117.274094 
	C568.746460,105.875908 574.249512,95.963272 584.286560,88.261368 
	C567.292114,86.147850 540.477722,101.088974 529.947388,125.558846 
	C517.239807,155.088150 522.856689,188.933487 543.917664,209.320633 
	C555.455078,220.488892 581.103760,230.500458 589.119263,226.685150 
	C581.222717,221.959885 575.645874,215.417557 571.934570,207.176620 
	C558.900452,178.234070 557.753845,148.446274 565.718323,117.274094 
M18.553356,61.156128 
	C18.865582,68.768684 18.322176,76.537865 19.680605,83.958916 
	C22.007269,96.669418 26.101379,109.058586 28.380901,121.774925 
	C30.746843,134.973373 30.137924,147.305740 13.847093,153.065979 
	C13.672198,153.127838 13.634029,153.576370 13.092907,154.998322 
	C16.437296,154.609177 19.247313,154.513718 21.952150,153.930466 
	C41.854252,149.638992 57.183727,139.796127 62.304504,118.769821 
	C64.640007,109.180023 62.534798,99.653061 59.682980,90.313789 
	C55.470425,76.518318 50.067627,62.950630 50.063023,48.219929 
	C50.059769,37.811119 52.931686,28.804216 63.486420,24.178083 
	C63.597961,24.129194 63.500298,23.603004 63.490635,23.299633 
	C41.705433,20.965450 21.949612,37.314919 18.553356,61.156128 
M207.500305,24.967772 
	C200.501038,24.967772 193.501755,24.967772 186.502487,24.967772 
	C186.391922,25.470972 186.281342,25.974174 186.170776,26.477375 
	C194.562424,30.233080 199.305191,36.833549 198.891663,45.651047 
	C198.531952,53.320892 196.660629,60.979824 194.847778,68.496574 
	C193.922836,72.331650 191.659225,75.843864 190.000702,79.502014 
	C190.364288,79.826576 190.727859,80.151138 191.091446,80.475700 
	C211.990921,59.186455 232.313416,37.150085 260.674530,24.966938 
	C243.283081,24.966938 225.891617,24.966938 207.500305,24.967772 
M506.592010,140.168991 
	C507.184357,139.816071 508.122375,139.597137 508.318695,139.090683 
	C513.778076,125.004761 519.219971,110.910942 524.446228,96.737854 
	C524.850708,95.640907 524.093933,93.253433 523.132935,92.649422 
	C514.107178,86.976532 504.554016,83.454376 493.893311,87.825096 
	C484.649200,91.615044 474.467041,105.657799 473.936890,115.289650 
	C474.627228,114.798759 475.146057,114.472504 475.617554,114.088165 
	C483.455109,107.699356 488.957367,107.952118 495.968475,115.187607 
	C502.526337,121.955307 505.197815,130.414307 506.592010,140.168991 
z"/>
<path fill="#767678" opacity="1.000000" stroke="none" 
	d="
M90.915741,135.000000 
	C90.881851,109.177406 91.042770,83.852203 90.705399,58.533649 
	C90.590721,49.927849 89.614532,41.274891 88.237160,32.772243 
	C87.652679,29.164148 85.022858,25.887386 83.080360,21.971712 
	C85.734756,22.219542 89.161858,22.424126 92.556190,22.875267 
	C113.674675,25.682133 125.459785,38.146160 125.929367,59.556236 
	C126.568459,88.694801 126.527611,117.849106 126.679878,146.997192 
	C126.768654,163.989685 126.939354,180.989365 126.558411,197.974258 
	C126.271950,210.746719 129.382721,221.116592 142.523697,226.560028 
	C120.086815,226.560028 97.649940,226.560028 75.098625,226.560028 
	C75.217064,226.304520 75.297676,225.697815 75.582573,225.578369 
	C87.222061,220.698532 90.932487,211.213104 90.915688,199.473663 
	C90.885170,178.149155 90.912354,156.824554 90.915741,135.000000 
z"/>
<path fill="#767678" opacity="1.000000" stroke="none" 
	d="
M462.966736,146.000000 
	C462.968323,164.153534 462.963318,181.807053 462.973785,199.460587 
	C462.982239,213.690918 467.352875,220.043259 480.558777,225.107437 
	C481.154816,225.335999 481.691254,225.720093 483.401184,226.664627 
	C459.009979,226.664627 435.839813,226.664627 411.230957,226.664627 
	C413.480072,225.387238 414.503906,224.763702 415.564301,224.210190 
	C423.648376,219.990250 428.178589,213.378143 428.203247,204.221375 
	C428.275818,177.244629 428.305145,150.265747 428.028534,123.291000 
	C427.906158,111.353355 423.507812,106.001305 412.109070,102.094360 
	C411.553467,101.903923 411.035309,101.604195 410.159088,101.197105 
	C427.850311,96.177361 445.087189,91.286537 462.966827,86.213348 
	C462.966827,106.016129 462.966827,125.758064 462.966736,146.000000 
z"/>
<path fill="#757677" opacity="1.000000" stroke="none" 
	d="
M264.961121,215.967819 
	C261.914764,217.821472 259.085724,220.421448 255.779892,221.383987 
	C247.069122,223.920288 238.250656,226.759033 229.294647,227.637253 
	C212.001236,229.332962 197.725632,222.515182 188.250488,207.958694 
	C175.822571,188.865936 164.345673,169.155975 152.317612,149.799805 
	C149.279800,144.911163 145.701813,140.358200 142.041580,135.183823 
	C151.738708,124.598106 161.776093,113.640961 171.450562,103.079979 
	C186.518707,139.427582 209.610199,170.475510 232.443741,201.659790 
	C235.072418,205.249832 238.496826,208.317810 241.831543,211.317398 
	C248.342285,217.173859 255.947739,218.312149 264.610352,215.917389 
	C265.008179,216.009247 264.961121,215.967819 264.961121,215.967819 
z"/>
<path fill="#767677" opacity="1.000000" stroke="none" 
	d="
M306.277893,212.869232 
	C311.558960,216.882690 317.124237,216.680847 322.784241,215.309555 
	C326.086517,214.509476 329.321320,213.430832 332.933777,212.376099 
	C322.914978,225.419418 291.948273,231.636490 277.082947,220.606415 
	C267.494049,213.491440 264.355682,203.211121 264.156036,192.133224 
	C263.759857,170.150406 264.194214,148.153992 264.069611,126.164413 
	C263.984894,111.209724 260.485260,106.473282 246.141602,101.188309 
	C263.579956,96.216690 280.600403,91.364212 298.195221,86.347992 
	C298.195221,88.293999 298.199860,90.241302 298.194519,92.188568 
	C298.105377,124.673378 297.914215,157.158432 297.993591,189.642838 
	C298.014221,198.082474 299.774017,206.206345 306.277893,212.869232 
z"/>
<path fill="#767678" opacity="1.000000" stroke="none" 
	d="
M388.026062,90.329910 
	C387.748322,123.922623 387.377167,157.054932 387.276917,190.188049 
	C387.259430,195.965561 387.889282,201.852295 389.097778,207.500809 
	C390.853821,215.708801 395.079895,218.705658 403.494171,219.013596 
	C404.233154,219.040634 404.968536,219.167038 405.705597,219.247284 
	C405.820374,219.669693 405.935150,220.092102 406.049927,220.514511 
	C402.355438,222.032181 398.771851,223.985016 394.939514,224.961929 
	C389.656158,226.308701 384.216949,227.378723 378.788086,227.756348 
	C363.605835,228.812378 354.224701,220.322845 354.097412,205.071884 
	C353.900055,181.427750 354.175598,157.779663 354.254669,134.133255 
	C354.263031,131.635803 354.286926,129.138260 354.323029,126.641052 
	C354.501984,114.262260 350.561615,104.667702 335.838776,101.382179 
	C353.824615,96.198990 370.498505,91.393883 387.559235,86.477295 
	C387.689911,87.429939 387.857239,88.649864 388.026062,90.329910 
z"/>
<path fill="#767678" opacity="1.000000" stroke="none" 
	d="
M635.615479,94.306290 
	C662.042236,109.055000 672.433533,131.941238 671.245178,161.008255 
	C670.488037,179.527954 664.248474,195.799927 651.197327,209.102448 
	C640.270264,220.240051 626.369690,225.411636 611.269653,227.799240 
	C610.659790,227.895676 609.914856,227.138107 608.840759,226.571625 
	C625.223145,215.950500 629.506470,199.295151 632.341797,181.968140 
	C636.124390,158.852280 634.309082,136.157028 625.904419,114.251350 
	C621.454712,102.653702 615.429565,91.973274 602.761353,86.995872 
	C614.247742,86.732773 625.026489,89.237045 635.615479,94.306290 
z"/>
<path fill="#767678" opacity="1.000000" stroke="none" 
	d="
M565.545410,117.636612 
	C557.753845,148.446274 558.900452,178.234070 571.934570,207.176620 
	C575.645874,215.417557 581.222717,221.959885 589.119263,226.685150 
	C581.103760,230.500458 555.455078,220.488892 543.917664,209.320633 
	C522.856689,188.933487 517.239807,155.088150 529.947388,125.558846 
	C540.477722,101.088974 567.292114,86.147850 584.286560,88.261368 
	C574.249512,95.963272 568.746460,105.875908 565.545410,117.636612 
z"/>
<path fill="#767678" opacity="1.000000" stroke="none" 
	d="
M18.667423,60.728012 
	C21.949612,37.314919 41.705433,20.965450 63.495468,23.299633 
	C63.500298,23.603004 63.597961,24.129194 63.486420,24.178083 
	C52.931686,28.804216 50.059769,37.811119 50.063023,48.219929 
	C50.067627,62.950630 55.470425,76.518318 59.682980,90.313789 
	C62.534798,99.653061 64.640007,109.180023 62.304504,118.769821 
	C57.183727,139.796127 41.854252,149.638992 21.952150,153.930466 
	C19.247313,154.513718 16.437296,154.609177 13.092907,154.998322 
	C13.634029,153.576370 13.672198,153.127838 13.847093,153.065979 
	C30.137924,147.305740 30.746843,134.973373 28.380901,121.774925 
	C26.101379,109.058586 22.007269,96.669418 19.680605,83.958916 
	C18.322176,76.537865 18.865582,68.768684 18.667423,60.728012 
z"/>
<path fill="#777779" opacity="1.000000" stroke="none" 
	d="
M208.000244,24.967354 
	C225.891617,24.966938 243.283081,24.966938 260.674530,24.966938 
	C232.313416,37.150085 211.990921,59.186455 191.091446,80.475700 
	C190.727859,80.151138 190.364288,79.826576 190.000702,79.502014 
	C191.659225,75.843864 193.922836,72.331650 194.847778,68.496574 
	C196.660629,60.979824 198.531952,53.320892 198.891663,45.651047 
	C199.305191,36.833549 194.562424,30.233080 186.170776,26.477375 
	C186.281342,25.974174 186.391922,25.470972 186.502487,24.967772 
	C193.501755,24.967772 200.501038,24.967772 208.000244,24.967354 
z"/>
<path fill="#777778" opacity="1.000000" stroke="none" 
	d="
M506.426819,139.849457 
	C505.197815,130.414307 502.526337,121.955307 495.968475,115.187607 
	C488.957367,107.952118 483.455109,107.699356 475.617554,114.088165 
	C475.146057,114.472504 474.627228,114.798759 473.936890,115.289650 
	C474.467041,105.657799 484.649200,91.615044 493.893311,87.825096 
	C504.554016,83.454376 514.107178,86.976532 523.132935,92.649422 
	C524.093933,93.253433 524.850708,95.640907 524.446228,96.737854 
	C519.219971,110.910942 513.778076,125.004761 508.318695,139.090683 
	C508.122375,139.597137 507.184357,139.816071 506.426819,139.849457 
z"/>
<path fill="#757677" opacity="1.000000" stroke="none" 
	d="
M265.031616,216.030075 
	C265.131714,215.828415 265.208405,215.605927 265.285095,215.383423 
	C265.319122,215.565659 265.353149,215.747894 265.174164,215.948975 
	C264.961121,215.967819 265.008179,216.009247 265.031616,216.030075 
z"/>
</svg>